<svg width="87" height="87" viewBox="0 0 87 87" fill="none" xmlns="http://www.w3.org/2000/svg">
<rect width="87" height="87" fill="#F47920"/>
<path d="M68.0538 74.9926C64.7655 75.1674 58.173 73.6264 55.4947 72.9531C55.1009 72.854 54.8184 72.4996 54.8077 72.0918L54.5523 62.7907C57.3779 59.4442 59.4155 55.7259 60.1617 52.9561C61.8872 52.7289 64.1335 50.9166 64.703 48.6833C65.289 46.3845 65.0326 44.4707 63.9995 43.4323C63.616 43.0468 62.996 42.6545 62.0688 42.6317C62.2299 41.4854 62.377 40.3042 62.512 39.0701C63.8165 34.4449 64.7725 27.7364 63.364 23.1802C61.1987 16.1756 56.6997 13.0456 52.1691 11.7755C50.4398 11.2172 48.4798 10.8507 46.2864 10.6866C40.3179 10.2467 32.9518 12.2567 28.7709 15.4827C27.8324 16.2071 27.0003 17.183 26.3409 18.2506C24.5111 20.7694 23.4246 24.0803 23.1027 28.1488C22.7789 32.2429 23.1944 35.4812 24.5383 39.3957C24.6631 40.5118 24.8005 41.5834 24.95 42.6345C24.0446 42.667 23.4352 43.052 23.0575 43.4321C22.0239 44.4706 21.768 46.3854 22.354 48.6832C22.9216 50.9082 25.1533 52.7148 26.8764 52.9527C27.6231 55.7287 29.668 59.4596 32.5047 62.814L32.2503 72.0922C32.2391 72.5 31.9561 72.8539 31.5633 72.9534C28.8848 73.6268 22.303 75.1663 19.0042 74.993C18.6285 74.9536 18.2925 75.2653 18.2712 75.6493C18.2503 76.0333 18.544 76.3611 18.928 76.3819C19.1247 76.3926 19.331 76.3984 19.5466 76.3984C23.161 76.3984 29.3175 74.9536 31.9033 74.3031C32.899 74.0521 33.6142 73.1593 33.6423 72.1301L33.8569 64.3113C34.9303 65.4347 36.0858 66.4896 37.3107 67.4111C38.1345 68.0296 39.1011 68.3563 40.1061 68.3563H46.9341C47.9386 68.3563 48.9056 68.0296 49.7295 67.4101C50.9612 66.4838 52.1225 65.422 53.2013 64.2918L53.4164 72.1295C53.4451 73.1587 54.1602 74.0516 55.1559 74.3025C57.7422 74.9531 63.8972 76.3978 67.5127 76.3978C67.7282 76.3978 67.9345 76.3925 68.1312 76.3813C68.5152 76.3605 68.8089 76.0327 68.7875 75.6487C68.7667 75.2642 68.4351 74.953 68.0545 74.9923L68.0538 74.9926ZM40.1044 66.9645C39.4033 66.9645 38.7256 66.7339 38.1454 66.2984C36.618 65.1497 35.1903 63.7694 33.9105 62.2999C33.4395 61.759 32.9905 61.207 32.5632 60.6482C30.2207 57.5843 28.573 54.3534 28.0909 52.0837C27.435 48.9979 26.9068 46.2782 26.4777 43.4589C26.7185 41.467 27.4341 36.2266 28.7688 31.7221C29.2334 31.9707 31.4992 32.6057 39.2981 28.296C39.3797 28.3048 39.4613 28.3135 39.5423 28.3218C38.5519 29.5335 37.0027 31.1793 35.7802 31.3497C35.6404 31.3687 35.5413 31.4954 35.5554 31.6352C35.569 31.776 35.6982 31.8954 35.8326 31.8712C36.2269 31.8474 43.6117 31.3633 47.6563 28.8878C47.7204 28.8902 47.7835 28.8922 47.8471 28.8946C46.8829 30.2126 45.6207 31.5604 44.3748 31.7565C44.2355 31.7784 44.1384 31.906 44.1549 32.0464C44.1704 32.1794 44.2836 32.2779 44.4151 32.2779C44.4219 32.2779 44.4292 32.2779 44.436 32.2775C45.6662 32.1804 54.9129 31.3715 57.9633 28.8412C58.0094 28.8388 58.056 28.8363 58.1007 28.8344C61.0423 35.7541 60.801 41.1499 60.6674 42.5816C60.2086 45.8174 59.6425 48.8036 58.9454 52.0822C58.4643 54.346 56.8239 57.5658 54.4915 60.6225C54.0643 61.1827 53.6152 61.7362 53.1438 62.2785C51.8592 63.7558 50.4255 65.1434 48.8913 66.2964C48.3102 66.7328 47.6325 66.9629 46.9319 66.9629L40.1044 66.9645ZM23.7024 48.339C23.2543 46.5806 23.3849 45.0765 24.0442 44.4133C24.319 44.1376 24.6952 44.0138 25.1574 44.0293C25.5346 46.4534 25.9881 48.8255 26.5314 51.4258C25.4886 51.0063 24.0811 49.8236 23.7024 48.339ZM63.3545 48.339C62.9734 49.8314 61.5495 51.016 60.5061 51.4301C61.0324 48.9022 61.4829 46.5175 61.8641 44.0278C62.3442 44.0035 62.7307 44.1302 63.0127 44.4133C63.6721 45.0755 63.8026 46.5806 63.3545 48.339ZM38.5272 44.3357C38.1281 44.5978 37.5426 44.7061 37.0964 44.5148C36.9882 44.4687 36.8775 44.4332 36.7673 44.3944C37.1154 44.6876 37.3406 45.1212 37.3406 45.6115C37.3406 46.4942 36.625 47.2097 35.7424 47.2097C34.8598 47.2097 34.1442 46.4941 34.1442 45.6115C34.1442 44.9051 34.6059 44.3124 35.2415 44.1012C35.1007 44.0963 34.9599 44.0905 34.8176 44.0978C34.5817 44.1099 34.3535 44.1648 34.1204 44.1886C33.8418 44.2172 33.7879 44.3857 33.9141 44.1765C33.5544 44.7722 31.5293 44.9348 32.0289 44.1065C32.4945 43.3351 33.7544 43.104 34.5656 42.9855C35.9712 42.7807 37.3878 42.9525 38.6933 43.5118C39.1525 43.7084 38.7816 44.1686 38.5272 44.3357ZM49.5663 44.4541C49.2759 44.5784 48.4608 44.7813 48.2263 44.4153C47.9812 44.0332 48.4356 43.7099 48.7555 43.5729C50.0188 43.0321 51.3864 42.8054 52.756 42.9423C53.3876 43.0054 54.6412 43.1146 55.0184 43.74C55.4684 44.4857 53.5081 45.1382 53.1493 44.5434C52.9628 44.2347 52.3249 44.1803 52.0079 44.1366C51.9729 44.1318 51.9384 44.1332 51.9035 44.1288C52.4934 44.3638 52.9114 44.9377 52.9114 45.6111C52.9114 46.4937 52.1958 47.2093 51.3132 47.2093C50.4306 47.2093 49.715 46.4937 49.715 45.6111C49.715 44.9527 50.1136 44.3886 50.6821 44.1434C50.3024 44.1997 49.9281 44.2992 49.5664 44.4541L49.5663 44.4541ZM31.1981 40.9591C29.1333 41.0664 29.7644 38.8467 31.4704 38.7583C33.9358 38.6307 36.4409 38.8773 38.8703 39.3021C40.8904 39.6555 39.3028 41.7485 37.8197 41.4888C35.6485 41.1091 33.4026 40.8445 31.1981 40.9591ZM47.1986 40.8008C47.0141 40.1129 47.8336 39.4716 48.4356 39.3662C51.0117 38.9156 53.6304 38.6297 56.2472 38.7651C56.9201 38.8001 57.4401 39.371 57.1672 40.0279C56.8658 40.7532 55.8958 40.9882 55.1967 40.9518C53.7956 40.879 52.3862 40.9969 50.9943 41.1552C50.4351 41.2188 49.8763 41.2921 49.3198 41.3761C49.1358 41.4038 48.2353 41.5562 48.9873 41.4246C48.396 41.5285 47.4036 41.565 47.1986 40.8008ZM47.6181 59.2162C45.2959 61.3533 41.8213 61.4412 39.3322 59.4891C38.4166 58.771 40.175 57.7617 40.8853 58.3185C42.5879 59.6536 44.6421 59.7906 46.2781 58.285C47.0311 57.5913 48.6207 58.2933 47.6181 59.2162ZM41.4659 52.8466C41.4213 51.9717 41.4659 51.0842 41.4659 50.2084C41.4659 49.6622 43.4827 49.3932 43.4827 49.668C43.4827 50.4807 43.4725 51.2939 43.4827 52.1066C43.4895 52.6455 43.5589 53.2718 44.0779 53.5787C44.4115 53.7758 44.8703 53.6874 45.2421 53.6874C45.6684 53.6874 45.6267 53.886 45.3494 54.0875C44.9737 54.3598 44.378 54.4695 43.9235 54.4695C42.7098 54.4691 41.5436 54.3652 41.4659 52.8466Z" fill="#FFF8EE"/>
</svg>
