<svg width="87" height="87" viewBox="0 0 87 87" fill="none" xmlns="http://www.w3.org/2000/svg">
<rect width="87" height="87" fill="#F47920"/>
<path d="M47.4271 76.9483H39.9612C39.4364 76.9479 38.9335 76.7391 38.5625 76.3682C38.1916 75.9968 37.9829 75.4938 37.9824 74.9695V68.1284C37.9795 67.9633 37.8634 67.8225 37.7022 67.7881C35.2568 67.1865 32.9177 66.2126 30.768 64.9004C30.6359 64.8135 30.4616 64.8286 30.3466 64.9368L25.4844 69.7985L25.4839 69.799C25.1144 70.168 24.6134 70.3753 24.0915 70.3753C23.5691 70.3753 23.0686 70.168 22.6992 69.799L17.403 64.5033C17.0355 64.1329 16.8291 63.6323 16.8291 63.1104C16.8296 62.5885 17.0359 62.0875 17.4039 61.7176L22.2646 56.8564C22.3758 56.7379 22.3889 56.5583 22.2957 56.4253C20.9844 54.2726 20.0114 51.9321 19.4104 49.4841C19.3716 49.3293 19.2332 49.2205 19.074 49.2196H12.2329C11.7081 49.2191 11.2051 49.0103 10.8342 48.6394C10.4628 48.2685 10.254 47.7655 10.2535 47.2407V39.7748C10.254 39.25 10.4628 38.7471 10.8342 38.3761C11.2051 38.0052 11.7081 37.7964 12.2329 37.796H19.0735C19.238 37.793 19.3793 37.6775 19.4143 37.5163C20.0158 35.0704 20.9897 32.7318 22.3014 30.5815C22.3888 30.449 22.3738 30.2742 22.2645 30.1592L17.4029 25.298C17.0353 24.9275 16.829 24.4265 16.829 23.9046C16.8295 23.3827 17.0358 22.8822 17.4038 22.5117L22.699 17.2165H22.6985C23.0685 16.8481 23.569 16.6412 24.0914 16.6412C24.6133 16.6412 25.1139 16.8481 25.4838 17.2165L30.3455 22.0777V22.0782C30.4639 22.1894 30.644 22.2025 30.7771 22.1093C32.9287 20.798 35.2694 19.8246 37.7167 19.224C37.8716 19.1856 37.9808 19.0468 37.9822 18.8871V12.046C37.9827 11.5217 38.1915 11.0187 38.5624 10.6473C38.9333 10.2764 39.4363 10.0676 39.9611 10.0671H47.427C47.9518 10.0676 48.4548 10.2764 48.8257 10.6473C49.1971 11.0187 49.4054 11.5217 49.4063 12.046V29.3391C49.4034 29.6018 49.2748 29.8479 49.0607 30.0004C48.8461 30.1528 48.5718 30.1931 48.3222 30.1096C45.8093 29.2367 43.1012 29.0896 40.5088 29.6853C37.9163 30.281 35.5442 31.5952 33.6639 33.4775C23.1248 44.3079 34.1328 61.5884 48.3097 56.9103C48.5597 56.821 48.8379 56.8584 49.0559 57.0103C49.2734 57.1623 49.4045 57.4104 49.4069 57.6759V74.9691C49.4059 75.4934 49.1972 75.9964 48.8262 76.3678C48.4553 76.7387 47.9524 76.9474 47.4275 76.9479L47.4271 76.9483ZM30.5652 63.211C30.9332 63.2125 31.2935 63.3135 31.6086 63.5023C33.6234 64.7321 35.8154 65.6448 38.1078 66.2084C38.5356 66.3172 38.9152 66.5648 39.1876 66.9119C39.4599 67.259 39.6099 67.6872 39.6138 68.1285V74.9696C39.6138 75.1614 39.7697 75.3167 39.9614 75.3172H47.4273C47.6195 75.3167 47.7749 75.1614 47.7754 74.9696V58.7963C38.1981 61.648 27.5168 53.5113 27.8772 43.4917C27.6884 33.3352 38.0027 25.4082 47.7754 28.2344V12.0462C47.7749 11.8544 47.6195 11.6991 47.4273 11.6986H39.9614C39.7697 11.6991 39.6138 11.8544 39.6138 12.0462V18.8873C39.6109 19.3267 39.4628 19.7524 39.1934 20.0986C38.9235 20.4452 38.5472 20.6928 38.1219 20.804C35.8285 21.3662 33.6346 22.2784 31.6178 23.5077C31.2415 23.7422 30.7973 23.8427 30.3565 23.7927C29.9162 23.7422 29.506 23.5446 29.1923 23.231L24.3312 18.3703C24.1986 18.2392 23.985 18.2392 23.8524 18.3703L18.5568 23.666C18.4932 23.7291 18.4567 23.8155 18.4567 23.9053C18.4567 23.9952 18.4932 24.0816 18.5568 24.1447L23.4179 29.0064C23.7306 29.3181 23.9287 29.7264 23.9797 30.1652C24.0311 30.6036 23.9326 31.0469 23.7 31.4221C22.4703 33.4369 21.5576 35.629 20.9939 37.9214C20.8852 38.3491 20.6381 38.7288 20.2905 39.0011C19.9433 39.2735 19.5156 39.4235 19.0738 39.4269H12.2333C12.041 39.4274 11.8856 39.5828 11.8852 39.775V47.2409C11.8856 47.4326 12.041 47.5885 12.2333 47.5885H19.0738C19.5132 47.5919 19.939 47.7395 20.2851 48.0089C20.6318 48.2784 20.8793 48.6551 20.9905 49.0799C23.7034 59.115 27.0917 54.3338 18.5568 62.8719C18.4888 62.9326 18.4504 63.0195 18.4504 63.1108C18.45 63.2015 18.4888 63.2885 18.5563 63.3496L23.8525 68.6458C23.9161 68.7094 24.002 68.7449 24.0918 68.7449C24.1816 68.7449 24.2676 68.7094 24.3312 68.6458L29.1929 63.7846C29.555 63.4176 30.0497 63.2108 30.5653 63.2113L30.5652 63.211ZM72.6347 73.686C71.6764 73.7044 70.7432 73.3806 70.0023 72.7723C69.262 72.1639 68.7624 71.3119 68.5939 70.3681H58.6215C58.171 70.3681 57.8059 70.003 57.8059 69.5525V44.3237H54.155C53.9467 46.9561 52.7543 49.4136 50.8163 51.207C48.8777 53 46.3347 53.9976 43.6941 54.001C29.7405 53.3451 29.7368 33.6902 43.6616 33.0166C46.3075 33.0132 48.8568 34.0074 50.8017 35.8008C52.747 37.5942 53.9442 40.0551 54.1549 42.6923H57.8058V17.4636C57.8058 17.013 58.1709 16.6479 58.6214 16.6479H68.5944C69.5435 11.7741 76.7628 12.5557 76.7113 17.4631C76.7589 22.3884 69.5402 23.1288 68.5944 18.2792H59.437V42.6926H68.5944C69.544 37.8183 76.7633 38.6009 76.7113 43.5083C76.7579 48.4331 69.5397 49.1729 68.5944 44.3239H59.437V68.7373H68.5944C69.5445 63.8616 76.7628 64.6461 76.7113 69.5525H76.7108C76.7351 70.6463 76.3157 71.7032 75.5476 72.4819C74.7791 73.2611 73.7284 73.6956 72.6346 73.6864L72.6347 73.686ZM72.6138 67.0507C71.7225 67.058 70.9024 67.5391 70.4607 68.3135C70.0194 69.0878 70.0233 70.0389 70.4714 70.8094C70.919 71.5803 71.7428 72.0547 72.6347 72.0547C73.5261 72.0474 74.3461 71.5663 74.7873 70.792C75.2287 70.0171 75.2248 69.0665 74.7772 68.2956C74.3295 67.5251 73.5052 67.0507 72.6138 67.0507ZM43.6938 34.6469C41.3392 34.6164 39.0729 35.5417 37.4125 37.2113C35.7522 38.8815 34.8399 41.1531 34.8841 43.5076C34.935 54.6958 51.8416 55.8012 52.555 43.5081C52.5521 41.1589 51.6175 38.9067 49.9567 37.2452C48.2954 35.5844 46.0432 34.6498 43.6938 34.6469ZM72.6138 41.0064C71.723 41.0146 70.9034 41.4958 70.4622 42.2696C70.0209 43.044 70.0253 43.9941 70.4724 44.765C70.92 45.5355 71.7435 46.0099 72.6347 46.0104C73.5256 46.0026 74.3451 45.521 74.7864 44.7471C75.2272 43.9728 75.2233 43.0227 74.7757 42.2522C74.3285 41.4813 73.5046 41.0069 72.6137 41.0065L72.6138 41.0064ZM72.6138 14.9623C71.723 14.9701 70.9034 15.4512 70.4622 16.2256C70.0209 16.9999 70.0253 17.95 70.4724 18.7205C70.92 19.4909 71.7435 19.9658 72.6347 19.9662C73.5251 19.9574 74.3437 19.4758 74.7845 18.702C75.2253 17.9281 75.2214 16.9785 74.7743 16.2085C74.3272 15.4381 73.5042 14.9637 72.6138 14.9623ZM43.7199 48.7357C41.8643 48.7265 40.1525 47.7342 39.2222 46.1286C38.292 44.5231 38.2823 42.5447 39.1975 40.93C40.1122 39.3157 41.8143 38.3073 43.6698 38.2802C50.5657 38.472 50.6182 48.4775 43.7199 48.7357ZM43.6947 39.9114C42.41 39.9163 41.2255 40.6062 40.587 41.7209C39.9486 42.8361 39.9534 44.2071 40.5992 45.3175C41.2453 46.4283 42.4349 47.1094 43.7193 47.1056C45.0045 47.1007 46.189 46.4109 46.8275 45.2961C47.4659 44.1809 47.4611 42.8104 46.8149 41.6995C46.1687 40.5892 44.9796 39.9076 43.6947 39.9114Z" fill="#FFF8EE"/>
<path d="M43.6951 39.9114H43.6947M43.6947 39.9114C42.41 39.9163 41.2255 40.6062 40.587 41.7209C39.9486 42.8361 39.9534 44.2071 40.5992 45.3175C41.2453 46.4283 42.4349 47.1094 43.7193 47.1056C45.0045 47.1007 46.189 46.4109 46.8275 45.2961C47.4659 44.1809 47.4611 42.8104 46.8149 41.6995C46.1687 40.5892 44.9796 39.9076 43.6947 39.9114ZM47.4271 76.9483H39.9612C39.4364 76.9478 38.9335 76.7391 38.5625 76.3682C38.1916 75.9968 37.9829 75.4938 37.9824 74.9695V68.1284C37.9795 67.9633 37.8634 67.8225 37.7022 67.7881C35.2568 67.1865 32.9177 66.2126 30.768 64.9004C30.6359 64.8135 30.4616 64.8286 30.3466 64.9368L25.4844 69.7985L25.4839 69.799C25.1144 70.168 24.6134 70.3753 24.0915 70.3753C23.5691 70.3753 23.0686 70.168 22.6992 69.799L17.403 64.5033C17.0355 64.1329 16.8291 63.6323 16.8291 63.1104C16.8296 62.5885 17.0359 62.0875 17.4039 61.7176L22.2646 56.8564C22.3758 56.7379 22.3889 56.5583 22.2957 56.4253C20.9844 54.2726 20.0114 51.9321 19.4104 49.4841C19.3716 49.3293 19.2332 49.2205 19.074 49.2196H12.2329C11.7081 49.2191 11.2051 49.0103 10.8342 48.6394C10.4628 48.2685 10.254 47.7655 10.2535 47.2407V39.7748C10.254 39.25 10.4628 38.7471 10.8342 38.3761C11.2051 38.0052 11.7081 37.7964 12.2329 37.796H19.0735C19.238 37.793 19.3793 37.6775 19.4143 37.5163C20.0158 35.0704 20.9897 32.7318 22.3014 30.5815C22.3888 30.449 22.3738 30.2742 22.2645 30.1592L17.4029 25.298C17.0353 24.9275 16.829 24.4265 16.829 23.9046C16.8295 23.3827 17.0358 22.8822 17.4038 22.5117L22.699 17.2165H22.6985C23.0685 16.8481 23.569 16.6412 24.0914 16.6412C24.6133 16.6412 25.1139 16.8481 25.4838 17.2165L30.3455 22.0777V22.0782C30.4639 22.1894 30.644 22.2025 30.7771 22.1093C32.9287 20.798 35.2694 19.8246 37.7167 19.224C37.8716 19.1856 37.9808 19.0468 37.9822 18.8871V12.046C37.9827 11.5217 38.1915 11.0187 38.5624 10.6473C38.9333 10.2764 39.4363 10.0676 39.9611 10.0671H47.427C47.9518 10.0676 48.4548 10.2764 48.8257 10.6473C49.1971 11.0187 49.4054 11.5217 49.4063 12.046V29.3391C49.4034 29.6018 49.2748 29.8479 49.0607 30.0004C48.8461 30.1528 48.5718 30.1931 48.3222 30.1096C45.8093 29.2367 43.1012 29.0896 40.5088 29.6853C37.9163 30.281 35.5442 31.5952 33.6639 33.4775C23.1248 44.3079 34.1328 61.5884 48.3097 56.9103C48.5597 56.821 48.8379 56.8584 49.0559 57.0103C49.2734 57.1623 49.4045 57.4104 49.4069 57.6759V74.9691C49.4059 75.4934 49.1972 75.9964 48.8262 76.3678C48.4553 76.7387 47.9524 76.9474 47.4275 76.9479L47.4271 76.9483ZM30.5652 63.211C30.9332 63.2125 31.2935 63.3135 31.6086 63.5023C33.6234 64.7321 35.8154 65.6448 38.1078 66.2084C38.5356 66.3172 38.9152 66.5648 39.1876 66.9119C39.4599 67.259 39.6099 67.6872 39.6138 68.1285V74.9696C39.6138 75.1614 39.7697 75.3167 39.9614 75.3172H47.4273C47.6195 75.3167 47.7749 75.1614 47.7754 74.9696V58.7963C38.1981 61.648 27.5168 53.5113 27.8772 43.4917C27.6884 33.3352 38.0027 25.4082 47.7754 28.2344V12.0462C47.7749 11.8544 47.6195 11.6991 47.4273 11.6986H39.9614C39.7697 11.6991 39.6138 11.8544 39.6138 12.0462V18.8873C39.6109 19.3267 39.4628 19.7524 39.1934 20.0986C38.9235 20.4452 38.5472 20.6928 38.1219 20.804C35.8285 21.3662 33.6346 22.2784 31.6178 23.5077C31.2415 23.7422 30.7973 23.8427 30.3565 23.7927C29.9162 23.7422 29.506 23.5446 29.1923 23.231L24.3311 18.3703C24.1986 18.2392 23.985 18.2392 23.8524 18.3703L18.5568 23.666C18.4932 23.7291 18.4567 23.8155 18.4567 23.9053C18.4567 23.9952 18.4932 24.0816 18.5568 24.1447L23.4179 29.0064C23.7306 29.3181 23.9287 29.7264 23.9797 30.1652C24.0311 30.6036 23.9326 31.0469 23.7 31.4221C22.4703 33.4369 21.5576 35.629 20.9939 37.9214C20.8852 38.3491 20.6381 38.7288 20.2905 39.0011C19.9433 39.2735 19.5156 39.4235 19.0738 39.4269H12.2333C12.041 39.4274 11.8856 39.5828 11.8852 39.775V47.2409C11.8856 47.4326 12.041 47.5885 12.2333 47.5885H19.0738C19.5132 47.5919 19.939 47.7395 20.2851 48.0089C20.6318 48.2784 20.8793 48.6551 20.9905 49.0799C23.7034 59.115 27.0917 54.3338 18.5568 62.8719C18.4888 62.9326 18.4504 63.0195 18.4504 63.1108C18.45 63.2015 18.4888 63.2885 18.5563 63.3496L23.8525 68.6458C23.9161 68.7094 24.002 68.7449 24.0918 68.7449C24.1816 68.7449 24.2676 68.7094 24.3312 68.6458L29.1929 63.7846C29.555 63.4176 30.0497 63.2108 30.5653 63.2113L30.5652 63.211ZM72.6347 73.686C71.6764 73.7044 70.7432 73.3806 70.0023 72.7723C69.262 72.1639 68.7624 71.3119 68.5939 70.3681H58.6215C58.171 70.3681 57.8059 70.003 57.8059 69.5525V44.3237H54.155C53.9467 46.9561 52.7543 49.4136 50.8163 51.207C48.8777 53 46.3347 53.9976 43.6941 54.001C29.7405 53.3451 29.7368 33.6902 43.6616 33.0166C46.3075 33.0132 48.8568 34.0074 50.8017 35.8008C52.747 37.5942 53.9442 40.0551 54.1549 42.6923H57.8058V17.4636C57.8058 17.013 58.1709 16.6479 58.6214 16.6479H68.5944C69.5435 11.7741 76.7628 12.5557 76.7113 17.4631C76.7589 22.3884 69.5402 23.1288 68.5944 18.2792H59.437V42.6926H68.5944C69.544 37.8183 76.7633 38.6009 76.7113 43.5083C76.7579 48.4331 69.5397 49.1729 68.5944 44.3239H59.437V68.7373H68.5944C69.5445 63.8616 76.7628 64.6461 76.7113 69.5525H76.7108C76.7351 70.6463 76.3157 71.7032 75.5476 72.4819C74.7791 73.2611 73.7284 73.6956 72.6346 73.6864L72.6347 73.686ZM72.6138 67.0507C71.7225 67.058 70.9024 67.5391 70.4607 68.3135C70.0194 69.0878 70.0233 70.0389 70.4714 70.8094C70.919 71.5803 71.7428 72.0547 72.6347 72.0547C73.5261 72.0474 74.3461 71.5663 74.7873 70.792C75.2287 70.0171 75.2248 69.0665 74.7772 68.2956C74.3295 67.5251 73.5052 67.0507 72.6138 67.0507ZM43.6938 34.6469C41.3392 34.6164 39.0729 35.5417 37.4125 37.2113C35.7522 38.8815 34.8399 41.1531 34.8841 43.5076C34.935 54.6958 51.8416 55.8012 52.555 43.5081C52.5521 41.1589 51.6175 38.9067 49.9567 37.2452C48.2954 35.5844 46.0432 34.6498 43.6938 34.6469ZM72.6138 41.0064C71.723 41.0146 70.9034 41.4958 70.4622 42.2696C70.0209 43.044 70.0253 43.9941 70.4724 44.765C70.92 45.5355 71.7435 46.0099 72.6347 46.0104C73.5256 46.0026 74.3451 45.521 74.7864 44.7471C75.2272 43.9728 75.2233 43.0227 74.7757 42.2522C74.3285 41.4813 73.5046 41.0069 72.6137 41.0065L72.6138 41.0064ZM72.6138 14.9623C71.723 14.9701 70.9034 15.4512 70.4622 16.2256C70.0209 16.9999 70.0253 17.95 70.4724 18.7205C70.92 19.4909 71.7435 19.9658 72.6347 19.9662C73.5251 19.9575 74.3437 19.4758 74.7845 18.702C75.2253 17.9281 75.2214 16.9785 74.7743 16.2085C74.3272 15.4381 73.5042 14.9637 72.6138 14.9623ZM43.7199 48.7357C41.8643 48.7265 40.1525 47.7342 39.2222 46.1286C38.292 44.5231 38.2823 42.5447 39.1975 40.93C40.1122 39.3157 41.8143 38.3073 43.6698 38.2802C50.5657 38.472 50.6182 48.4775 43.7199 48.7357Z" stroke="#FFF8EE" stroke-width="1.16"/>
</svg>
