<svg width="87" height="87" viewBox="0 0 87 87" fill="none" xmlns="http://www.w3.org/2000/svg">
<rect width="87" height="87" fill="#F47920"/>
<path d="M66.3792 41.2683C71.0843 41.2683 74.934 37.4186 74.934 32.7135C74.934 28.0085 71.0843 24.1588 66.3792 24.1588C61.6742 24.1588 57.8245 28.0085 57.8245 32.7135C57.8245 37.4186 61.5315 41.2683 66.3792 41.2683ZM66.3792 26.7264C69.6586 26.7264 72.3673 29.4353 72.3673 32.7145C72.3673 35.9938 69.6584 38.7025 66.3792 38.7025C63.0999 38.7025 60.3912 35.9937 60.3912 32.7145C60.3912 29.4351 62.9573 26.7264 66.3792 26.7264Z" fill="#FFF8EE"/>
<path d="M20.8974 41.2683C25.6024 41.2683 29.4521 37.4186 29.4521 32.7135C29.4521 28.0085 25.6024 24.1588 20.8974 24.1588C16.1923 24.1588 12.3427 28.0085 12.3427 32.7135C12.3427 37.4186 16.0496 41.2683 20.8974 41.2683ZM20.8974 26.7264C24.1767 26.7264 26.8854 29.4353 26.8854 32.7145C26.8854 35.9938 24.1766 38.7025 20.8974 38.7025C17.6182 38.7025 14.9093 35.9937 14.9093 32.7145C14.9093 29.4351 17.6182 26.7264 20.8974 26.7264Z" fill="#FFF8EE"/>
<path d="M43.567 42.2665C49.4123 42.2665 54.2602 37.5614 54.2602 31.5733C54.2602 25.5851 49.5552 20.88 43.567 20.88C37.5788 20.88 32.8737 25.5851 32.8737 31.5733C32.8737 37.5614 37.7215 42.2665 43.567 42.2665ZM43.567 23.5887C47.9866 23.5887 51.5514 27.153 51.5514 31.5731C51.5514 35.9927 47.9871 39.5575 43.567 39.5575C39.1474 39.5575 35.5826 35.9933 35.5826 31.5731C35.5826 27.2957 39.1474 23.5887 43.567 23.5887Z" fill="#FFF8EE"/>
<path d="M72.0812 40.413C71.5107 40.128 70.6553 40.413 70.3704 40.9834L66.3786 48.6822L62.3867 40.9834C62.1017 40.413 61.3886 40.128 60.6759 40.413C58.5375 41.2684 56.6841 42.6941 55.2582 44.5476C53.9752 43.4067 52.4066 42.4092 50.8386 41.696C50.2682 41.411 49.4127 41.696 49.1278 42.2664L43.5663 52.8168L38.1486 42.2664C37.8637 41.696 37.1505 41.411 36.4379 41.696C34.7271 42.4086 33.3014 43.4068 32.0182 44.5476C30.5924 42.8368 28.7389 41.4111 26.6005 40.413C26.0301 40.128 25.1747 40.413 24.8898 40.9834L20.8979 48.6822L16.906 40.9834C16.4768 40.413 15.7642 40.128 15.0515 40.413C9.77597 42.6941 6.49677 47.8269 6.49677 53.5301V56.6665C6.49677 57.3792 7.06719 57.9496 7.77982 57.9496H25.6023V58.0923V62.2269C25.6023 62.9395 26.1728 63.51 26.8854 63.51H60.105C60.8177 63.51 61.3881 62.9395 61.3881 62.2269V58.235V58.0923H79.2106C79.9232 58.0923 80.4937 57.5219 80.4937 56.8093V53.6728C80.6364 47.8269 77.2143 42.6941 72.0816 40.4125L72.0812 40.413ZM9.06291 55.3838V53.5303C9.06291 49.2529 11.344 45.4037 15.051 43.4075L19.6133 52.2473C20.041 53.1027 21.4668 53.1027 21.8944 52.2473L26.4567 43.4075C27.7398 44.1202 29.0229 45.261 29.8788 46.4018C27.5977 48.968 26.1718 52.105 25.6014 55.3843L9.06291 55.3838ZM58.8222 60.9442H28.3113V58.2354C28.3113 52.5322 31.4478 47.3994 36.4379 44.6904L42.4259 56.2389C42.8536 57.0943 44.2794 57.0943 44.707 56.2389L50.6951 44.6904C55.685 47.3993 58.8217 52.532 58.8217 58.2354L58.8222 60.9442ZM78.0706 55.3838H61.2463C60.6758 51.9617 59.2501 48.8253 56.9688 46.4013C57.9669 45.1183 59.1072 44.1202 60.3909 43.407L64.9532 52.2468C65.3809 53.1022 66.8067 53.1022 67.2343 52.2468L71.7967 43.407C75.5036 45.4032 77.7847 49.3951 77.7847 53.5298V55.3838H78.0706Z" fill="#FFF8EE"/>
</svg>
