<svg width="87" height="87" viewBox="0 0 87 87" fill="none" xmlns="http://www.w3.org/2000/svg">
<rect width="87" height="87" fill="#F47920"/>
<path d="M73.9096 69.642H71.0098V39.192C71.0098 38.3943 70.3573 37.7418 69.5596 37.7418H60.8596C60.062 37.7418 59.4095 38.3943 59.4095 39.192V69.642H56.5096V44.9924C56.5096 44.1947 55.8571 43.5422 55.0595 43.5422H46.3595C45.5618 43.5422 44.9093 44.1947 44.9093 44.9924V69.642H42.0095V50.7916C42.0095 49.9939 41.357 49.3414 40.5593 49.3414H31.8593C31.0616 49.3414 30.4091 49.9939 30.4091 50.7916V69.642H27.5093V56.592C27.5093 55.7943 26.8568 55.1418 26.0591 55.1418H17.3596C16.562 55.1418 15.9095 55.7943 15.9095 56.592V69.642H13.0096C12.212 69.642 11.5595 70.2945 11.5595 71.0922C11.5595 71.8898 12.212 72.5423 13.0096 72.5423H73.9096C74.7073 72.5423 75.3598 71.8898 75.3598 71.0922C75.3598 70.2945 74.7073 69.642 73.9096 69.642ZM24.6092 69.642H18.8096V58.0422H24.6097L24.6092 69.642ZM39.1096 69.642H33.3095V52.242H39.1096V69.642ZM53.6101 69.642H47.8099V46.4416H53.6101V69.642ZM68.1092 69.642H62.3091L62.3096 40.6424H68.1097L68.1092 69.642Z" fill="#FFF8EE"/>
<path d="M13.0109 52.242C13.3153 52.242 13.6343 52.1406 13.8955 51.9376L32.3519 37.7417H55.0589C55.4648 37.7417 55.842 37.5679 56.1173 37.2776L71.1385 21.0968L69.6029 27.2393C69.4087 28.0165 69.8811 28.804 70.6584 28.9982C70.7764 29.0283 70.8938 29.0414 71.0113 29.0414C71.6609 29.0414 72.2513 28.602 72.4164 27.9437L75.3162 16.3439C75.4002 16.0059 75.3512 15.6579 75.2016 15.3534C75.2133 15.3753 75.2337 15.3913 75.2439 15.4112C75.2322 15.3865 75.2089 15.3661 75.1973 15.3418C75.1434 15.236 75.0769 15.1374 74.9972 15.0461C74.9739 15.0199 74.9637 14.9869 74.9395 14.9621C74.9249 14.9476 74.9103 14.933 74.8958 14.933C74.8987 14.9345 74.8987 14.9388 74.9016 14.9403C74.5433 14.6024 74.0389 14.4631 73.5587 14.5849L61.9589 17.4847C61.1816 17.6789 60.7102 18.4664 60.9034 19.2436C61.0976 20.0209 61.888 20.4938 62.6623 20.2991L69.5209 18.5838L54.4214 34.8416H31.8598C31.5408 34.8416 31.2219 34.9431 30.9752 35.146L12.1248 49.6465C11.4869 50.1252 11.3709 51.0383 11.8636 51.6763C12.1409 52.0535 12.5759 52.2419 13.0109 52.2419L13.0109 52.242Z" fill="#FFF8EE"/>
</svg>
