<svg width="75" height="75" viewBox="0 0 75 75" fill="none" xmlns="http://www.w3.org/2000/svg">
<g clip-path="url(#clip0_594_311)">
<path d="M36.7115 23.4873C28.0358 23.4873 20.979 30.5448 20.979 39.2198C20.979 47.8948 28.0365 54.9523 36.7115 54.9523C45.3865 54.9523 52.444 47.8948 52.444 39.2198C52.444 30.5448 45.3865 23.4873 36.7115 23.4873ZM36.7115 51.4574C29.9635 51.4574 24.4746 45.9684 24.4746 39.2205C24.4746 32.4725 29.9635 26.9836 36.7115 26.9836C43.4595 26.9836 48.9484 32.4725 48.9484 39.2205C48.9484 45.9684 43.4595 51.4574 36.7115 51.4574Z" fill="#F47920"/>
<path d="M41.3729 37.4722H38.4594V34.5587C38.4594 33.5925 37.6774 32.8105 36.7113 32.8105C35.7451 32.8105 34.9631 33.5925 34.9631 34.5587V39.2204C34.9631 40.1855 35.7451 40.9685 36.7113 40.9685H41.3729C42.3391 40.9685 43.1211 40.1855 43.1211 39.2204C43.1211 38.2542 42.3391 37.4722 41.3729 37.4722Z" fill="#F47920"/>
<path d="M54.2072 31.2309C54.5007 31.8729 55.1349 32.2527 55.7982 32.2527C56.0406 32.2527 56.2888 32.2012 56.5245 32.0941C57.4022 31.6919 57.7888 30.6549 57.3882 29.7772C56.8648 28.6326 56.2404 27.5223 55.5328 26.4802C54.9907 25.6821 53.9034 25.4709 53.1052 26.0151C52.3055 26.5572 52.0969 27.6431 52.64 28.4427C53.2363 29.3241 53.7644 30.2621 54.2072 31.2309Z" fill="#F47920"/>
<path d="M48.5986 54.3382C47.7594 54.999 46.8609 55.5921 45.9285 56.1025C45.0815 56.565 44.7699 57.629 45.234 58.4754C45.5508 59.056 46.1512 59.3843 46.7687 59.3843C47.0517 59.3843 47.34 59.3156 47.6053 59.17C48.7078 58.5665 49.7697 57.8646 50.7613 57.0826C51.5198 56.4848 51.6504 55.3871 51.0526 54.6284C50.4564 53.8709 49.3571 53.7414 48.5985 54.3381L48.5986 54.3382Z" fill="#F47920"/>
<path d="M57.4305 35.4864C56.469 35.5775 55.764 36.4302 55.8551 37.3907C55.9118 37.9957 55.9409 38.6107 55.9409 39.2204C55.9409 39.6819 55.9248 40.1398 55.8931 40.5955C55.8254 41.558 56.5517 42.3936 57.5143 42.4612C57.5564 42.4649 57.597 42.4659 57.6376 42.4659C58.5475 42.4659 59.3144 41.762 59.38 40.839C59.4174 40.3041 59.4372 39.7636 59.4372 39.2204C59.4372 38.5014 59.4034 37.7751 59.3358 37.0624C59.2437 36.1009 58.393 35.3876 57.4305 35.4864Z" fill="#F47920"/>
<path d="M39.9027 58.1874C38.8575 58.3623 37.7842 58.4507 36.7119 58.4507H16.8997C15.9336 58.4507 15.1516 59.2337 15.1516 60.1988C15.1516 61.164 15.9336 61.947 16.8997 61.947H36.7119C37.9761 61.947 39.2446 61.8419 40.4786 61.6358C41.4307 61.4761 42.0743 60.5766 41.9146 59.6235C41.7543 58.6708 40.849 58.0297 39.9027 58.1874Z" fill="#F47920"/>
<path d="M45.5219 22.1247C46.4683 22.6133 47.3809 23.185 48.2352 23.825C48.5499 24.0602 48.9167 24.1747 49.282 24.1747C49.8132 24.1747 50.3392 23.9332 50.6815 23.4744C51.2606 22.7017 51.1035 21.6061 50.3309 21.027C49.3215 20.2705 48.2435 19.5946 47.126 19.0166C46.2671 18.5738 45.2125 18.9115 44.7707 19.7684C44.3274 20.6263 44.6645 21.6809 45.5219 22.1247Z" fill="#F47920"/>
<path d="M56.6887 45.8739C55.8053 45.4962 54.7751 45.9051 54.3928 46.7922C53.9745 47.7687 53.4698 48.7188 52.8917 49.6146C52.3683 50.4257 52.6024 51.5085 53.4141 52.0308C53.7064 52.2197 54.0353 52.3092 54.3594 52.3092C54.9338 52.3092 55.4967 52.0272 55.8302 51.5074C56.5134 50.4482 57.1112 49.3243 57.6065 48.1683C57.9868 47.2818 57.5768 46.2538 56.6887 45.8739Z" fill="#F47920"/>
<path d="M31.9778 22.9771C32.3196 23.3184 32.767 23.4885 33.2145 23.4885C33.6619 23.4885 34.1093 23.3184 34.4512 22.9771L37.9453 19.483C38.1087 19.3212 38.2377 19.125 38.3277 18.9096C38.3313 18.9013 38.3324 18.892 38.336 18.8842C38.412 18.6849 38.4588 18.4705 38.4588 18.2442C38.4588 18.0179 38.412 17.8035 38.3339 17.6053C38.3303 17.597 38.3293 17.5876 38.3256 17.5798C38.2372 17.3629 38.1066 17.1683 37.9432 17.0065L34.4491 13.5123C33.766 12.8292 32.6603 12.8292 31.9772 13.5123C31.2941 14.1939 31.2941 15.3026 31.9772 15.9842L32.8429 16.85C22.7131 18.597 14.8715 27.0541 14.071 37.4732L6.40951 37.4737C5.44335 37.4737 4.66138 38.2557 4.66138 39.2219C4.66138 40.187 5.44335 40.97 6.40951 40.97H15.7329C16.699 40.97 17.481 40.187 17.481 39.2219C17.481 30.283 23.6203 22.7715 31.8975 20.6271C31.3185 21.3134 31.331 22.3305 31.9777 22.9777L31.9778 22.9771Z" fill="#F47920"/>
<path d="M23.3098 53.2061C23.3098 52.241 22.5278 51.458 21.5617 51.458H6.41121C5.44506 51.458 4.66309 52.241 4.66309 53.2061C4.66309 54.1712 5.44506 54.9543 6.41121 54.9543H21.5617C22.5278 54.9543 23.3098 54.1712 23.3098 53.2061Z" fill="#F47920"/>
<path d="M19.6669 46.2136C19.6669 45.2485 18.885 44.4655 17.9188 44.4655H1.74813C0.781975 44.4655 0 45.2485 0 46.2136C0 47.1787 0.781975 47.9617 1.74813 47.9617H17.9188C18.885 47.9617 19.6669 47.1787 19.6669 46.2136Z" fill="#F47920"/>
</g>
<defs>
<clipPath id="clip0_594_311">
<rect width="75" height="75" fill="white"/>
</clipPath>
</defs>
</svg>
