<svg width="56" height="56" viewBox="0 0 56 56" fill="none" xmlns="http://www.w3.org/2000/svg">
<rect x="-0.5" y="0.5" width="55" height="55" rx="27.5" transform="matrix(-1 0 0 1 55 0)" fill="#FAF4E6"/>
<path d="M15.4697 28.5303C15.1768 28.2374 15.1768 27.7626 15.4697 27.4697L20.2426 22.6967C20.5355 22.4038 21.0104 22.4038 21.3033 22.6967C21.5962 22.9896 21.5962 23.4645 21.3033 23.7574L17.0607 28L21.3033 32.2426C21.5962 32.5355 21.5962 33.0104 21.3033 33.3033C21.0104 33.5962 20.5355 33.5962 20.2426 33.3033L15.4697 28.5303ZM40 28.75H16V27.25H40V28.75Z" fill="#F47920"/>
<rect x="-0.5" y="0.5" width="55" height="55" rx="27.5" transform="matrix(-1 0 0 1 55 0)" stroke="#F47920"/>
</svg>
