<svg width="81" height="54" viewBox="0 0 81 54" fill="none" xmlns="http://www.w3.org/2000/svg">
<path d="M41.8578 19.2347C41.8578 8.63366 50.4913 0 61.0925 0C71.6936 0 80.3273 8.63347 80.3273 19.2347C80.3273 29.8358 71.6938 38.4695 61.0925 38.4695C58.7971 38.4695 56.5024 38.0326 54.4259 37.2672C54.8627 42.0762 56.2837 46.994 58.6882 51.5839C58.907 51.9118 58.907 52.3493 58.7972 52.6772C58.6882 52.8959 58.4694 53.114 58.2506 53.114C57.9228 53.223 57.595 53.114 57.1574 52.7862C52.5672 48.8517 48.6328 43.7151 46.0097 38.0317C43.6053 32.786 42.1842 27.2119 41.9662 21.3104C41.8579 20.6556 41.8579 19.8902 41.8579 19.2345L41.8578 19.2347Z" fill="#F47920"/>
<path d="M-3.8147e-05 19.2347C-3.8147e-05 8.63366 8.63343 0 19.2347 0C29.8358 0 38.4694 8.63347 38.4694 19.2347C38.4694 29.8358 29.836 38.4695 19.2347 38.4695C16.9392 38.4695 14.6445 38.0326 12.568 37.2672C13.0049 42.0762 14.4259 46.994 16.8303 51.5839C17.0491 51.9118 17.0491 52.3493 16.9393 52.6772C16.8303 52.8959 16.6115 53.114 16.3927 53.114C16.0649 53.223 15.7371 53.114 15.2995 52.7862C10.7094 48.8517 6.77497 43.7151 4.15183 38.0317C1.74746 32.786 0.326313 27.2119 0.108322 21.3104C6.86646e-05 20.6556 6.86646e-05 19.8902 6.86646e-05 19.2345L-3.8147e-05 19.2347Z" fill="#F47920"/>
</svg>
