<svg width="147" height="97" viewBox="0 0 147 97" fill="none" xmlns="http://www.w3.org/2000/svg">
<path d="M35.0446 96.3452C54.0833 96.3452 69.5891 80.8392 69.5893 61.801L69.5891 61.8009C69.5891 60.5965 69.5878 59.2452 69.3986 58.1003L69.3934 58.0689L69.3922 58.0372C68.9977 47.3558 66.4258 37.2647 62.0708 27.7629C57.3245 17.4795 50.2053 8.18288 41.9016 1.06216C41.1504 0.502144 40.7352 0.430855 40.3803 0.548866L40.3035 0.574409H40.2225C40.187 0.574409 40.0992 0.596169 39.9746 0.702782C39.8638 0.797577 39.7614 0.928894 39.6897 1.06323C39.5354 1.55418 39.5587 2.16134 39.8411 2.58447L39.8559 2.60654L39.8682 2.63003C44.2792 11.0503 46.887 20.0737 47.6889 28.9011L47.7604 29.6891L47.018 29.4155C43.2873 28.0403 39.165 27.2559 35.0446 27.2559C16.0059 27.2559 0.5 42.7621 0.5 61.8006C0.5 80.8394 16.0062 96.3452 35.0446 96.3452Z" stroke="#F47920"/>
<path d="M111.307 96.3452C130.307 96.3452 145.788 80.903 145.852 61.9185V61.8009C145.852 60.5965 145.85 59.2452 145.661 58.1003L145.656 58.0689L145.655 58.0372C145.26 47.3558 142.688 37.2647 138.333 27.7629C133.587 17.4795 126.468 8.18288 118.164 1.06216C117.413 0.502144 116.998 0.430855 116.643 0.548866L116.566 0.574409H116.485C116.45 0.574409 116.362 0.596169 116.237 0.702782C116.126 0.797577 116.024 0.928894 115.952 1.06323C115.798 1.55418 115.821 2.16134 116.104 2.58447L116.119 2.60654L116.131 2.63003C120.542 11.0503 123.15 20.0737 123.952 28.9011L124.023 29.6891L123.281 29.4155C119.55 28.0403 115.428 27.2559 111.307 27.2559C92.2685 27.2559 76.7626 42.7621 76.7626 61.8006C76.7626 80.8394 92.2688 96.3452 111.307 96.3452Z" stroke="#F47920"/>
</svg>
