<svg width="18" height="18" viewBox="0 0 18 18" fill="none" xmlns="http://www.w3.org/2000/svg">
<path d="M9 0.666504C11.2642 0.666504 11.5467 0.674837 12.435 0.716504C13.3225 0.758171 13.9267 0.897337 14.4583 1.104C15.0083 1.31567 15.4717 1.60234 15.935 2.06484C16.3587 2.48142 16.6866 2.98533 16.8958 3.5415C17.1017 4.07234 17.2417 4.67734 17.2833 5.56484C17.3225 6.45317 17.3333 6.73567 17.3333 8.99984C17.3333 11.264 17.325 11.5465 17.2833 12.4348C17.2417 13.3223 17.1017 13.9265 16.8958 14.4582C16.6872 15.0147 16.3593 15.5187 15.935 15.9348C15.5183 16.3584 15.0144 16.6863 14.4583 16.8957C13.9275 17.1015 13.3225 17.2415 12.435 17.2832C11.5467 17.3223 11.2642 17.3332 9 17.3332C6.73584 17.3332 6.45334 17.3248 5.565 17.2832C4.6775 17.2415 4.07334 17.1015 3.54167 16.8957C2.98528 16.6869 2.48128 16.359 2.06501 15.9348C1.64118 15.5183 1.31328 15.0144 1.10417 14.4582C0.897505 13.9273 0.758338 13.3223 0.716672 12.4348C0.677505 11.5465 0.666672 11.264 0.666672 8.99984C0.666672 6.73567 0.675005 6.45317 0.716672 5.56484C0.758338 4.6765 0.897505 4.07317 1.10417 3.5415C1.3127 2.98499 1.64067 2.48094 2.06501 2.06484C2.4814 1.64086 2.98536 1.31295 3.54167 1.104C4.07334 0.897337 4.67667 0.758171 5.565 0.716504C6.45334 0.677337 6.73584 0.666504 9 0.666504ZM9 4.83317C7.89494 4.83317 6.83513 5.27216 6.05373 6.05356C5.27233 6.83496 4.83334 7.89477 4.83334 8.99984C4.83334 10.1049 5.27233 11.1647 6.05373 11.9461C6.83513 12.7275 7.89494 13.1665 9 13.1665C10.1051 13.1665 11.1649 12.7275 11.9463 11.9461C12.7277 11.1647 13.1667 10.1049 13.1667 8.99984C13.1667 7.89477 12.7277 6.83496 11.9463 6.05356C11.1649 5.27216 10.1051 4.83317 9 4.83317ZM14.4167 4.62484C14.4167 4.34857 14.3069 4.08362 14.1116 3.88827C13.9162 3.69292 13.6513 3.58317 13.375 3.58317C13.0987 3.58317 12.8338 3.69292 12.6384 3.88827C12.4431 4.08362 12.3333 4.34857 12.3333 4.62484C12.3333 4.9011 12.4431 5.16606 12.6384 5.36141C12.8338 5.55676 13.0987 5.6665 13.375 5.6665C13.6513 5.6665 13.9162 5.55676 14.1116 5.36141C14.3069 5.16606 14.4167 4.9011 14.4167 4.62484ZM9 6.49984C9.66305 6.49984 10.2989 6.76323 10.7678 7.23207C11.2366 7.70091 11.5 8.3368 11.5 8.99984C11.5 9.66288 11.2366 10.2988 10.7678 10.7676C10.2989 11.2364 9.66305 11.4998 9 11.4998C8.33696 11.4998 7.70108 11.2364 7.23224 10.7676C6.7634 10.2988 6.5 9.66288 6.5 8.99984C6.5 8.3368 6.7634 7.70091 7.23224 7.23207C7.70108 6.76323 8.33696 6.49984 9 6.49984Z" fill="#231F20"/>
</svg>
