<svg width="16" height="16" viewBox="0 0 16 16" fill="none" xmlns="http://www.w3.org/2000/svg">
<path d="M13.2792 13.2825H11.0583V9.80167C11.0583 8.97167 11.0417 7.90333 9.9 7.90333C8.7425 7.90333 8.56583 8.80667 8.56583 9.74083V13.2825H6.34417V6.125H8.4775V7.1H8.50667C8.805 6.53833 9.53 5.94417 10.6133 5.94417C12.8633 5.94417 13.28 7.42583 13.28 9.35333V13.2825H13.2792ZM3.83583 5.14583C3.6663 5.14605 3.49838 5.11281 3.34172 5.04801C3.18506 4.9832 3.04272 4.88812 2.92288 4.7682C2.80304 4.64828 2.70804 4.50588 2.64334 4.34918C2.57864 4.19247 2.5455 4.02454 2.54583 3.855C2.546 3.59986 2.62182 3.3505 2.7637 3.13846C2.90558 2.92641 3.10716 2.76119 3.34294 2.66371C3.57872 2.56623 3.83811 2.54085 4.08832 2.59078C4.33852 2.64072 4.5683 2.76373 4.74859 2.94426C4.92888 3.12478 5.0516 3.35472 5.10121 3.60498C5.15082 3.85525 5.12511 4.11461 5.02732 4.35026C4.92953 4.58592 4.76406 4.78728 4.55183 4.92889C4.33959 5.0705 4.09014 5.146 3.835 5.14583H3.83583ZM4.94917 13.2825H2.72167V6.125H4.95V13.2825H4.94917ZM14.3917 0.5H1.6075C0.994167 0.5 0.5 0.983333 0.5 1.58083V14.4192C0.5 15.0167 0.995 15.5 1.60667 15.5H14.3883C15 15.5 15.5 15.0167 15.5 14.4192V1.58083C15.5 0.983333 15 0.5 14.3883 0.5H14.3908H14.3917Z" fill="#231F20"/>
</svg>
