<?xml version="1.0" encoding="UTF-8"?><svg xmlns="http://www.w3.org/2000/svg" xmlns:xlink="http://www.w3.org/1999/xlink" viewBox="0 0 268.74 75.07"><defs><style>.e,.f{fill:#f47920;}.g{clip-path:url(#d);}.h,.i{fill:none;}.j,.k{fill:#636466;}.k,.f,.i{stroke:#fff;stroke-miterlimit:10;stroke-width:4.2px;}</style><clipPath id="d"><path class="h" d="M72.96,37.53c0,19.57-15.86,35.43-35.43,35.43S2.1,57.1,2.1,37.53,17.96,2.1,37.53,2.1s35.43,15.86,35.43,35.43Z"/></clipPath></defs><g id="a"/><g id="b"><g id="c"><g><g><g><path class="e" d="M72.96,37.53c0,19.57-15.86,35.43-35.43,35.43S2.1,57.1,2.1,37.53,17.96,2.1,37.53,2.1s35.43,15.86,35.43,35.43Z"/><g class="g"><polygon class="f" points="-3.1 53.14 32.57 20.43 32.57 81.14 -3.1 53.14"/><path class="k" d="M54.51,43.11l18.95,18.96s14.77-18.85,10.12-28.37c-4.65-9.52-12.39-5.53-12.39-5.53l-16.68,14.94"/><polygon class="f" points="78.24 21.13 42.56 53.83 42.56 -6.87 78.24 21.13"/></g></g><path class="i" d="M72.96,37.53c0,19.57-15.86,35.43-35.43,35.43S2.1,57.1,2.1,37.53,17.96,2.1,37.53,2.1s35.43,15.86,35.43,35.43Z"/></g><g><path class="j" d="M96.82,30.41l10.68,22.91h-2.47l-3.6-7.54h-9.87l-3.57,7.54h-2.55l10.82-22.91h.56Zm-.29,4.87l-3.93,8.29h7.83l-3.91-8.29Z"/><path class="j" d="M112.65,30.41h2.34v8.6l9.16-8.6h3.08l-11,10.28,11.86,12.63h-3.05l-10.04-10.67v10.67h-2.34V30.41Z"/><path class="j" d="M164.85,34.66l-1.81,1.39c-1-1.3-2.19-2.28-3.59-2.95-1.4-.67-2.93-1-4.6-1-1.83,0-3.52,.44-5.08,1.32s-2.76,2.06-3.62,3.54c-.86,1.48-1.29,3.14-1.29,4.99,0,2.79,.96,5.12,2.87,6.99,1.91,1.87,4.33,2.8,7.25,2.8,3.21,0,5.89-1.26,8.05-3.77l1.81,1.37c-1.14,1.45-2.57,2.58-4.28,3.37-1.71,.79-3.62,1.19-5.72,1.19-4.01,0-7.17-1.33-9.48-4-1.94-2.25-2.91-4.97-2.91-8.16,0-3.35,1.18-6.17,3.53-8.46,2.35-2.29,5.3-3.43,8.84-3.43,2.14,0,4.07,.42,5.79,1.27,1.72,.85,3.14,2.03,4.24,3.56Z"/><path class="j" d="M171.04,30.41h2.29v20.7h8.82v2.21h-11.1V30.41Z"/><path class="j" d="M187.04,30.41h2.29v22.91h-2.29V30.41Z"/><path class="j" d="M196.19,53.32V30.41h.5l15.25,17.56V30.41h2.26v22.91h-.51l-15.12-17.35v17.35h-2.37Z"/><path class="j" d="M221.04,30.41h2.29v22.91h-2.29V30.41Z"/><path class="j" d="M251.51,34.66l-1.81,1.39c-1-1.3-2.19-2.28-3.59-2.95-1.4-.67-2.93-1-4.6-1-1.83,0-3.52,.44-5.08,1.32s-2.76,2.06-3.62,3.54c-.86,1.48-1.29,3.14-1.29,4.99,0,2.79,.96,5.12,2.87,6.99,1.91,1.87,4.33,2.8,7.25,2.8,3.21,0,5.89-1.26,8.05-3.77l1.81,1.37c-1.14,1.45-2.57,2.58-4.28,3.37-1.71,.79-3.62,1.19-5.72,1.19-4.01,0-7.17-1.33-9.48-4-1.94-2.25-2.91-4.97-2.91-8.16,0-3.35,1.18-6.17,3.53-8.46,2.35-2.29,5.3-3.43,8.84-3.43,2.14,0,4.07,.42,5.79,1.27,1.72,.85,3.14,2.03,4.24,3.56Z"/><path class="j" d="M255.33,49.05l1.95-1.17c1.37,2.52,2.95,3.78,4.75,3.78,.77,0,1.49-.18,2.16-.54s1.19-.84,1.54-1.44c.35-.6,.53-1.24,.53-1.92,0-.77-.26-1.52-.78-2.26-.72-1.02-2.02-2.24-3.92-3.68-1.91-1.44-3.1-2.49-3.57-3.13-.81-1.08-1.21-2.25-1.21-3.5,0-1,.24-1.91,.72-2.73,.48-.82,1.15-1.47,2.02-1.94,.87-.47,1.81-.71,2.83-.71,1.08,0,2.09,.27,3.03,.8,.94,.54,1.93,1.52,2.98,2.95l-1.87,1.42c-.86-1.14-1.6-1.89-2.2-2.26-.61-.36-1.27-.54-1.99-.54-.92,0-1.68,.28-2.27,.84-.59,.56-.88,1.25-.88,2.07,0,.5,.1,.98,.31,1.45,.21,.47,.59,.98,1.14,1.53,.3,.29,1.29,1.05,2.96,2.29,1.98,1.46,3.34,2.77,4.08,3.91,.74,1.14,1.11,2.29,1.11,3.44,0,1.66-.63,3.1-1.89,4.33-1.26,1.23-2.79,1.84-4.6,1.84-1.39,0-2.65-.37-3.79-1.11-1.13-.74-2.17-1.99-3.13-3.73Z"/></g></g></g></g></svg>