<svg width="18" height="14" viewBox="0 0 18 14" fill="none" xmlns="http://www.w3.org/2000/svg">
<path d="M16.9525 2.41516C17.3333 3.90016 17.3333 7.00016 17.3333 7.00016C17.3333 7.00016 17.3333 10.1002 16.9525 11.5852C16.7408 12.406 16.1217 13.0518 15.3375 13.2702C13.9133 13.6668 9 13.6668 9 13.6668C9 13.6668 4.08917 13.6668 2.66251 13.2702C1.87501 13.0485 1.25667 12.4035 1.04751 11.5852C0.666672 10.1002 0.666672 7.00016 0.666672 7.00016C0.666672 7.00016 0.666672 3.90016 1.04751 2.41516C1.25917 1.59433 1.87834 0.948496 2.66251 0.730163C4.08917 0.333496 9 0.333496 9 0.333496C9 0.333496 13.9133 0.333496 15.3375 0.730163C16.125 0.951829 16.7433 1.59683 16.9525 2.41516ZM7.33334 9.91683L12.3333 7.00016L7.33334 4.0835V9.91683Z" fill="#231F20"/>
</svg>
